<?xml version="1.0" encoding="UTF-8"?>
<!DOCTYPE svg PUBLIC "-//W3C//DTD SVG 1.1//EN" "http://www.w3.org/Graphics/SVG/1.1/DTD/svg11.dtd">
<svg xmlns="http://www.w3.org/2000/svg" version="1.1" width="512px" height="512px" style="shape-rendering:geometricPrecision; text-rendering:geometricPrecision; image-rendering:optimizeQuality; fill-rule:evenodd; clip-rule:evenodd" xmlns:xlink="http://www.w3.org/1999/xlink">
<g><path style="opacity:0.998" fill="#a5d9e7" d="M 233.5,-0.5 C 248.167,-0.5 262.833,-0.5 277.5,-0.5C 377.805,11.9821 449.305,63.9821 492,155.5C 502.297,180.687 508.797,206.687 511.5,233.5C 511.5,248.167 511.5,262.833 511.5,277.5C 502.244,360.714 462.911,425.381 393.5,471.5C 390.487,451.289 385.32,431.622 378,412.5C 367.829,399.99 354.995,391.323 339.5,386.5C 328.184,381.727 316.517,377.727 304.5,374.5C 305.158,370.323 303.492,368.823 299.5,370C 298.748,370.671 298.414,371.504 298.5,372.5C 294.031,371.066 289.531,369.733 285,368.5C 284.333,358.5 284.333,348.5 285,338.5C 297.191,330.147 306.691,319.48 313.5,306.5C 336.781,288.625 350.281,264.958 354,235.5C 358.767,190.718 342.767,155.718 306,130.5C 304.427,90.9709 283.927,72.4709 244.5,75C 217.411,83.4441 204.244,101.944 205,130.5C 168.429,155.803 152.429,190.803 157,235.5C 157.678,240.54 158.511,245.54 159.5,250.5C 160.512,253.257 161.512,255.924 162.5,258.5C 164.065,260.509 165.065,262.843 165.5,265.5C 172.388,282.062 183.055,295.729 197.5,306.5C 204.909,318.951 214.409,329.618 226,338.5C 226.832,348.517 226.666,358.517 225.5,368.5C 221.878,369.708 218.211,370.708 214.5,371.5C 213.341,369.623 211.674,369.123 209.5,370C 208.663,371.011 208.33,372.178 208.5,373.5C 195.877,377.262 183.544,381.595 171.5,386.5C 162.631,389.601 154.298,393.768 146.5,399C 141.333,402.833 136.833,407.333 133,412.5C 127.236,432.289 122.402,452.289 118.5,472.5C 48.5186,426.238 8.85189,361.238 -0.5,277.5C -0.5,262.833 -0.5,248.167 -0.5,233.5C 10.0952,143.443 54.4286,75.6095 132.5,30C 164.278,13.1449 197.945,2.97822 233.5,-0.5 Z"/></g>
<g><path style="opacity:1" fill="#10303f" d="M 313.5,306.5 C 317.814,298.199 321.314,289.532 324,280.5C 340.915,274.892 349.415,263.058 349.5,245C 350.147,235.138 346.814,226.971 339.5,220.5C 338.526,222.743 338.192,225.076 338.5,227.5C 313.913,224.201 291.58,215.367 271.5,201C 265.174,195.847 260.174,189.68 256.5,182.5C 255.743,181.227 255.077,181.227 254.5,182.5C 248.379,193.121 240.046,201.621 229.5,208C 211.619,217.794 192.619,224.294 172.5,227.5C 172.808,225.076 172.474,222.743 171.5,220.5C 165.568,225.028 162.235,231.028 161.5,238.5C 160.833,242.5 160.167,246.5 159.5,250.5C 158.511,245.54 157.678,240.54 157,235.5C 152.429,190.803 168.429,155.803 205,130.5C 204.244,101.944 217.411,83.4441 244.5,75C 283.927,72.4709 304.427,90.9709 306,130.5C 342.767,155.718 358.767,190.718 354,235.5C 350.281,264.958 336.781,288.625 313.5,306.5 Z"/></g>
<g><path style="opacity:1" fill="#f0c8a4" d="M 254.5,182.5 C 254.839,259.878 255.839,337.211 257.5,414.5C 253.151,415.225 252.484,417.225 255.5,420.5C 255.5,430.5 255.5,440.5 255.5,450.5C 225.106,450.055 201.273,437.388 184,412.5C 178.968,404.107 174.801,395.441 171.5,386.5C 183.544,381.595 195.877,377.262 208.5,373.5C 208.962,374.88 209.962,375.547 211.5,375.5C 213.468,374.9 214.468,373.567 214.5,371.5C 218.211,370.708 221.878,369.708 225.5,368.5C 226.666,358.517 226.832,348.517 226,338.5C 214.409,329.618 204.909,318.951 197.5,306.5C 192.983,297.951 189.65,288.951 187.5,279.5C 183.187,279.452 179.187,278.285 175.5,276C 171.813,272.755 168.48,269.255 165.5,265.5C 165.065,262.843 164.065,260.509 162.5,258.5C 161.724,251.863 161.391,245.196 161.5,238.5C 162.235,231.028 165.568,225.028 171.5,220.5C 172.474,222.743 172.808,225.076 172.5,227.5C 192.619,224.294 211.619,217.794 229.5,208C 240.046,201.621 248.379,193.121 254.5,182.5 Z"/></g>
<g><path style="opacity:1" fill="#e3b591" d="M 254.5,182.5 C 255.077,181.227 255.743,181.227 256.5,182.5C 260.174,189.68 265.174,195.847 271.5,201C 291.58,215.367 313.913,224.201 338.5,227.5C 338.192,225.076 338.526,222.743 339.5,220.5C 346.814,226.971 350.147,235.138 349.5,245C 349.415,263.058 340.915,274.892 324,280.5C 321.314,289.532 317.814,298.199 313.5,306.5C 306.691,319.48 297.191,330.147 285,338.5C 284.333,348.5 284.333,358.5 285,368.5C 289.531,369.733 294.031,371.066 298.5,372.5C 299.803,375.379 301.803,376.045 304.5,374.5C 316.517,377.727 328.184,381.727 339.5,386.5C 330.82,414.019 313.153,433.519 286.5,445C 276.47,448.552 266.137,450.385 255.5,450.5C 255.5,440.5 255.5,430.5 255.5,420.5C 259.071,420.592 260.238,418.926 259,415.5C 258.617,414.944 258.117,414.611 257.5,414.5C 255.839,337.211 254.839,259.878 254.5,182.5 Z"/></g>
<g><path style="opacity:1" fill="#737671" d="M 161.5,238.5 C 161.391,245.196 161.724,251.863 162.5,258.5C 161.512,255.924 160.512,253.257 159.5,250.5C 160.167,246.5 160.833,242.5 161.5,238.5 Z"/></g>
<g><path style="opacity:1" fill="#193644" d="M 165.5,265.5 C 168.48,269.255 171.813,272.755 175.5,276C 179.187,278.285 183.187,279.452 187.5,279.5C 189.65,288.951 192.983,297.951 197.5,306.5C 183.055,295.729 172.388,282.062 165.5,265.5 Z"/></g>
<g><path style="opacity:1" fill="#fcfbf9" d="M 214.5,371.5 C 214.468,373.567 213.468,374.9 211.5,375.5C 209.962,375.547 208.962,374.88 208.5,373.5C 208.33,372.178 208.663,371.011 209.5,370C 211.674,369.123 213.341,369.623 214.5,371.5 Z"/></g>
<g><path style="opacity:1" fill="#fbfbfa" d="M 304.5,374.5 C 301.803,376.045 299.803,375.379 298.5,372.5C 298.414,371.504 298.748,370.671 299.5,370C 303.492,368.823 305.158,370.323 304.5,374.5 Z"/></g>
<g><path style="opacity:1" fill="#fdf8f4" d="M 210.5,377.5 C 215.493,377.997 216.493,380.164 213.5,384C 212.216,384.684 211.049,384.517 210,383.5C 209.322,381.402 209.489,379.402 210.5,377.5 Z"/></g>
<g><path style="opacity:1" fill="#fdf9f6" d="M 298.5,377.5 C 303.159,377.015 304.492,378.848 302.5,383C 297.711,383.845 296.377,382.011 298.5,377.5 Z"/></g>
<g><path style="opacity:1" fill="#bf0421" d="M 171.5,386.5 C 174.801,395.441 178.968,404.107 184,412.5C 201.273,437.388 225.106,450.055 255.5,450.5C 266.137,450.385 276.47,448.552 286.5,445C 313.153,433.519 330.82,414.019 339.5,386.5C 354.995,391.323 367.829,399.99 378,412.5C 385.32,431.622 390.487,451.289 393.5,471.5C 358.096,494.191 319.43,507.524 277.5,511.5C 262.833,511.5 248.167,511.5 233.5,511.5C 192.147,507.493 153.813,494.493 118.5,472.5C 122.402,452.289 127.236,432.289 133,412.5C 136.833,407.333 141.333,402.833 146.5,399C 154.298,393.768 162.631,389.601 171.5,386.5 Z"/></g>
<g><path style="opacity:1" fill="#fefbf8" d="M 212.5,386.5 C 217.159,386.015 218.492,387.848 216.5,392C 212.126,392.424 210.792,390.591 212.5,386.5 Z"/></g>
<g><path style="opacity:1" fill="#fdfbf9" d="M 296.5,386.5 C 301.587,386.284 302.587,388.118 299.5,392C 295.537,392.118 294.537,390.284 296.5,386.5 Z"/></g>
<g><path style="opacity:1" fill="#fefaf7" d="M 216.5,394.5 C 218.199,394.34 219.866,394.506 221.5,395C 222.813,398.692 221.48,400.359 217.5,400C 216.594,398.301 216.261,396.467 216.5,394.5 Z"/></g>
<g><path style="opacity:1" fill="#fcf8f5" d="M 291.5,394.5 C 293.199,394.34 294.866,394.506 296.5,395C 297.813,398.692 296.48,400.359 292.5,400C 291.594,398.301 291.261,396.467 291.5,394.5 Z"/></g>
<g><path style="opacity:1" fill="#fdf9f6" d="M 223.5,400.5 C 227.184,401.372 228.184,403.539 226.5,407C 221.382,406.824 220.382,404.658 223.5,400.5 Z"/></g>
<g><path style="opacity:1" fill="#fcf8f5" d="M 287.5,400.5 C 292.453,402.092 292.786,404.425 288.5,407.5C 285.075,405.495 284.742,403.162 287.5,400.5 Z"/></g>
<g><path style="opacity:1" fill="#fefbf8" d="M 229.5,406.5 C 234.159,406.015 235.492,407.848 233.5,412C 228.728,412.81 227.395,410.977 229.5,406.5 Z"/></g>
<g><path style="opacity:1" fill="#fdfaf8" d="M 279.5,406.5 C 284.159,406.015 285.492,407.848 283.5,412C 278.711,412.845 277.377,411.011 279.5,406.5 Z"/></g>
<g><path style="opacity:1" fill="#fefbf8" d="M 237.5,410.5 C 241.692,410.403 243.025,412.236 241.5,416C 236.728,416.81 235.395,414.977 237.5,410.5 Z"/></g>
<g><path style="opacity:1" fill="#fbf5f1" d="M 272.5,410.5 C 276.485,410.629 277.818,412.463 276.5,416C 270.546,417.227 269.212,415.394 272.5,410.5 Z"/></g>
<g><path style="opacity:1" fill="#fefbf9" d="M 245.5,413.5 C 250.159,413.015 251.492,414.848 249.5,419C 245.126,419.424 243.792,417.591 245.5,413.5 Z"/></g>
<g><path style="opacity:1" fill="#fdfaf8" d="M 263.5,413.5 C 268.159,413.015 269.492,414.848 267.5,419C 262.728,419.81 261.395,417.977 263.5,413.5 Z"/></g>
<g><path style="opacity:1" fill="#fdfbf8" d="M 257.5,414.5 C 258.117,414.611 258.617,414.944 259,415.5C 260.238,418.926 259.071,420.592 255.5,420.5C 252.484,417.225 253.151,415.225 257.5,414.5 Z"/></g>
</svg>
